<svg id="Layer_1" data-name="Layer 1" xmlns="http://www.w3.org/2000/svg" viewBox="0 0 218 208"><defs><style>.cls-1{fill:#44d62c;}.cls-2{fill:none;}</style></defs><path class="cls-1" d="M142.37,183.66h1.84V184h-.71v2.18h-.41V184h-.72Z"/><path class="cls-1" d="M144.91,183.66h.71l.57,2,.56-2h.71v2.54h-.41v-2.09H147l-.59,2H146l-.59-2h-.06v2.09h-.41Z"/><path class="cls-1" d="M104.19,65.85c-.5,3.76-2.5,11.7-1.52,16.49,1.27,6.18,6,5.85,7.76,2.8a11,11,0,0,0,.75-7.65A22.11,22.11,0,0,0,104.19,65.85Zm4.23,17.67c-.59,1.33-2.37,1.33-3-1.62-.58-2.59.25-7.65.51-9.87a19.21,19.21,0,0,1,2.6,6.08A9.31,9.31,0,0,1,108.42,83.52Z"/><path class="cls-1" d="M102.65,95a11,11,0,0,0-7,3.18,22.07,22.07,0,0,0-6.58,11.87c3.5-1.45,11.37-3.69,15-6.93C108.82,99,106.16,95,102.65,95Zm-.29,6c-2,1.79-6.75,3.61-8.8,4.49a19,19,0,0,1,4-5.29,9.33,9.33,0,0,1,4.73-2.63C103.7,97.41,104.59,99,102.36,101Z"/><path class="cls-1" d="M180.88,22.82a2.84,2.84,0,0,0-.85-.91,2.72,2.72,0,0,0-1-2.78,2.73,2.73,0,0,0-3.63.29L173.84,21,171,22.17a5.1,5.1,0,0,0-3-.1,2.11,2.11,0,0,1-1.22,0,7.14,7.14,0,0,0-4,.25,6.69,6.69,0,0,0-2.53.45,6.23,6.23,0,0,0-2.92,2.39l-.26.33c-3.95,1-5.66,3.19-6.4,4.88a6.83,6.83,0,0,0-.5,1.59,14,14,0,0,0-2.32-1.39,14.4,14.4,0,0,0-14.69,2.17c-4.47,3.62-6.26,9.19-4.89,15.3a26.33,26.33,0,0,0,3,7.47c3.11,5.38,7.81,10.35,12.36,15.16,4,4.25,7.81,8.26,10,12l.38.69c2.81,5.36,2.29,9.3-1.55,11.71a9.65,9.65,0,0,1-4.06,1.41,17.73,17.73,0,0,0-1-14.69,16.75,16.75,0,0,0-2.12-2.89c-5.63-6.16-11.6-4.79-14-3.21a2.75,2.75,0,0,0-1,3.24,3,3,0,0,0,.19.41,2.73,2.73,0,0,0,2.71,1.35c2.5-.3,5.25,1.36,6.86,4.14a8.62,8.62,0,0,1-.07,8.85A34.3,34.3,0,0,1,136.11,90l-.47-.51-.29-.31c-4.66-5.12-9.23-8-13.63-8.61a22,22,0,0,0-2.89-10.32,31.11,31.11,0,0,0-9.65-10.53,20.77,20.77,0,0,0-1.88-1.13c-1.53-11.57-9.16-17.56-16-19.31a19.19,19.19,0,0,0-21.09,8.1c-.4.6-.79,1.23-1.16,1.88-3.47,6-5.46,13-7.38,19.76-1.64,5.75-3.19,11.18-5.5,15.55-.13.25-.27.5-.41.74-1.54,2.66-2.89,4.13-4.33,4.59a2.85,2.85,0,0,1-2.66-.44c-1.45-1-1.1-3,.18-6.9a23.87,23.87,0,0,0,.89-3.18,8.45,8.45,0,0,0-1.44-6.74,7.78,7.78,0,0,0-5.6-2.93c-2.21-.18-5.39.55-8,5.13-.23.4-.42.76-.57,1.05a6.83,6.83,0,0,0-2.26-3.25,6.51,6.51,0,0,0-2.3-1.16,7.22,7.22,0,0,0-3.76-1.41,2.44,2.44,0,0,1-1.23-.38,5.11,5.11,0,0,0-3.06-.68l-2.31-1.82-1-2a2.74,2.74,0,0,0-5.17,1.08,2.71,2.71,0,0,0-1.55,1.25,2.69,2.69,0,0,0-.35,1,2.75,2.75,0,0,0,2.07,3l2.15.52,2.44,1.92a5,5,0,0,0,1.38,2.61,2.11,2.11,0,0,1,.63,1,7.11,7.11,0,0,0,2.22,3.35,6.58,6.58,0,0,0,1.65,2,6.22,6.22,0,0,0,3.54,1.34l.41.06c2.85,2.91,5.59,3.31,7.43,3.11a7.69,7.69,0,0,0,1.63-.37,13.69,13.69,0,0,0-.05,2.7,14.4,14.4,0,0,0,9.22,11.64c5.37,2.07,11.09.82,15.7-3.41a26.72,26.72,0,0,0,5-6.36c3.11-5.38,5.06-11.94,7-18.29,1.67-5.6,3.25-10.89,5.42-14.64l.4-.68c3.23-5.12,6.91-6.63,10.92-4.51a9.73,9.73,0,0,1,3.25,2.81,17.73,17.73,0,0,0-12.21,8.24A16.64,16.64,0,0,0,79.85,68c-2.53,8,1.65,12.44,4.21,13.7A2.75,2.75,0,0,0,87.38,81a2.33,2.33,0,0,0,.26-.38,2.75,2.75,0,0,0-.18-3c-1.52-2-1.46-5.23.15-8a8.6,8.6,0,0,1,7.7-4.37,34.23,34.23,0,0,1-1.26,5.14l-.2.67c0,.1-.07.23-.13.39-2.1,6.61-2.31,12-.63,16.12a22,22,0,0,0-7.5,7.66,31.06,31.06,0,0,0-4.29,13.62,18.53,18.53,0,0,0,0,2.2c-9.26,7.11-10.63,16.7-8.73,23.51A19.18,19.18,0,0,0,90.09,148.7c.72.05,1.46.07,2.21.07,6.93,0,14-1.77,20.8-3.49,5.8-1.45,11.28-2.83,16.22-3l.85,0c3.07,0,5,.44,6.14,1.46a2.88,2.88,0,0,1,.95,2.53c-.14,1.74-2.06,2.45-6.07,3.29a22.56,22.56,0,0,0-3.2.82,8.47,8.47,0,0,0-5.12,4.61,7.75,7.75,0,0,0,.27,6.31c.94,2,3.17,4.4,8.46,4.4.46,0,.86,0,1.19,0a6.86,6.86,0,0,0-1.69,3.58,6.73,6.73,0,0,0,.15,2.58,7.27,7.27,0,0,0,.66,4,2.57,2.57,0,0,1,.29,1.25,5.06,5.06,0,0,0,.93,3l-.41,2.91-1.2,1.87a2.74,2.74,0,0,0,3.53,3.93,2.74,2.74,0,0,0,4.48-2.78l-.62-2.13.44-3.06a5.11,5.11,0,0,0,1.57-2.51,2.21,2.21,0,0,1,.6-1.07,7.1,7.1,0,0,0,1.79-3.6,6.74,6.74,0,0,0,.87-2.41,6.3,6.3,0,0,0-.6-3.73c-.05-.11-.11-.26-.16-.39,1.1-3.92.06-6.49-1-8a7.36,7.36,0,0,0-1.14-1.23,13.4,13.4,0,0,0,7.84-15.12c-.9-5.68-4.84-10-10.81-11.88a26.27,26.27,0,0,0-8-1.11c-6.22,0-12.88,1.59-19.32,3.12-5.68,1.36-11,2.64-15.38,2.64l-.79,0c-6-.24-9.2-2.66-9.37-7.19a9.62,9.62,0,0,1,.81-4.23,17.72,17.72,0,0,0,13.24,6.46,16.6,16.6,0,0,0,3.56-.4c8.15-1.79,10-7.64,9.76-10.49a2.73,2.73,0,0,0-2.28-2.52,3.42,3.42,0,0,0-.46,0,2.76,2.76,0,0,0-2.52,1.67c-1,2.32-3.8,3.87-7,3.87a8.62,8.62,0,0,1-7.64-4.48A33.92,33.92,0,0,1,98,116.61l.67-.16.41-.09c6.77-1.48,11.55-4,14.27-7.51a22,22,0,0,0,10.39,2.66,31,31,0,0,0,13.94-3.09,18.56,18.56,0,0,0,1.93-1.07c10.78,4.47,19.77.86,24.72-4.19a19.21,19.21,0,0,0,3.53-22.32c-.33-.64-.68-1.29-1.05-1.94-3.47-6-8.53-11.23-13.42-16.28-4.16-4.29-8.09-8.35-10.72-12.53l-.44-.73c-1.54-2.66-2.13-4.57-1.81-6a2.88,2.88,0,0,1,1.72-2.09c1.58-.76,3.15.56,5.88,3.61a22.62,22.62,0,0,0,2.31,2.36,8.49,8.49,0,0,0,6.55,2.13,7.81,7.81,0,0,0,5.34-3.39c1.26-1.82,2.22-4.95-.43-9.53-.23-.39-.44-.73-.62-1a6.79,6.79,0,0,0,3.94-.33,6.7,6.7,0,0,0,2.16-1.41,7.25,7.25,0,0,0,3.1-2.56,2.49,2.49,0,0,1,.94-.87,5,5,0,0,0,2.12-2.31l2.73-1.09,2.22.1a2.74,2.74,0,0,0,2.49-4.11Zm-5.18,1.24L171,25.93a1.88,1.88,0,0,1-1.1,1.93c-2.24,1.31-1.41,2.3-4.15,3.46-.56.24-.09.47-1.82,1.27-1.2.55-3-.18-3.93,0s-3,1.31-1.44,3.84c.71,1.14,3.46,4.93,1.38,7.92-1.82,2.61-5,3.15-7.88.73-2.61-2.18-6.28-8.68-11.14-6.34-5.05,2.43-3.57,8.05-.6,12.79,6.27,10,19.24,18.94,25.06,30.52,7.13,14.21-7.87,30.83-26.09,22.16A16.67,16.67,0,0,1,136.5,106c-7.83,3.79-18,4.06-24-1-2.82,6.69-12.75,8.43-14.46,8.83a31.59,31.59,0,0,0-8.64,3c3.47,11.47,17.57,10.35,20.68,3,0,0,.39,5.88-7.61,7.64-8.45,1.85-14.43-4.58-16.27-8.24a12.76,12.76,0,0,0-3.5,9.18c.18,4.91,3.27,9.48,12,9.83,11.83.47,30.23-8.69,42.76-4.76,11.29,3.54,11.09,16.22,4.57,20.84a19.38,19.38,0,0,1-8.73,2.74c-1.31.07-1.38.68-1.28,1s.86.48,2,.37c4.15-.4,8.61,2,6.63,8.28-.31,1,1.11,2.61.84,3.9-.38,1.87-.71,1.46-.81,2.06-.5,2.94-1.7,2.34-2.41,4.84a1.83,1.83,0,0,1-1.45,1.49l-.71,5,.78,2.7-1.29-2.29-1.78,1.85,1.51-2.37.72-5a1.87,1.87,0,0,1-1.12-1.92c0-2.6-1.29-2.37-.92-5.33.07-.6-.36-.3-.19-2.2.12-1.32,1.65-2.51,1.95-3.41s.38-3.3-2.61-3.18c-1.34,0-6,.54-7.55-2.76-1.35-2.88-.23-5.89,3.31-7.19,3.19-1.17,10.65-1.1,11.06-6.48.42-5.58-5.18-7.12-10.77-6.91-11.8.43-26,7.19-39,6.44-15.87-.92-22.76-22.23-6.14-33.68A16.53,16.53,0,0,1,84,109c.63-8.68,5.47-17.59,12.87-20.27-4.39-5.79-.93-15.26-.42-16.94a31.46,31.46,0,0,0,1.76-9c-11.67-2.73-17.75,10-13,16.39,0,0-5.29-2.6-2.81-10.41,2.62-8.24,11.17-10.2,15.26-10a12.67,12.67,0,0,0-6.19-7.62c-4.34-2.3-9.85-1.92-14.51,5.47-6.33,10-7.59,30.52-17.27,39.41-8.7,8-19.59,1.5-20.33-6.46a19.47,19.47,0,0,1,2-8.93c.6-1.17.11-1.54-.25-1.62s-.84.5-1.31,1.54c-1.73,3.8-6.06,6.45-10.49,1.6-.69-.76-2.82-.34-3.8-1.22-1.43-1.26-.91-1.34-1.38-1.73-2.3-1.9-1.17-2.65-3-4.5a1.83,1.83,0,0,1-.57-2l-4-3.13L13.91,69l2.62,0-.7-2.46L17.12,69l3.95,3.11a1.87,1.87,0,0,1,2.22,0c2.25,1.29,2.69.07,5.08,1.87.48.36.44-.16,2,.94,1.09.76,1.36,2.69,2,3.39s2.66,2,4-.67c.63-1.19,2.53-5.46,6.17-5.16,3.17.27,5.22,2.75,4.57,6.47-.58,3.35-4.37,9.77.08,12.81,4.62,3.16,8.75-.93,11.37-5.87,5.52-10.43,6.79-26.14,13.91-37,8.73-13.28,30.63-8.59,32.23,11.52A16.93,16.93,0,0,1,107.64,62c7.2,4.89,12.5,13.53,11.12,21.28,7.21-.91,13.68,6.83,14.88,8.1a31.56,31.56,0,0,0,6.88,6c8.2-8.74.18-20.39-7.7-19.43,0,0,4.89-3.27,10.41,2.78,5.83,6.39,3.25,14.77,1,18.2a12.73,12.73,0,0,0,9.7-1.56c4.16-2.61,6.58-7.57,2.51-15.3-5.51-10.49-22.64-21.84-25.5-34.66-2.57-11.54,8.5-17.71,15.77-14.38a19.57,19.57,0,0,1,6.73,6.19c.72,1.1,1.28.87,1.53.6s0-1-.67-1.91c-2.43-3.4-2.56-8.48,3.85-9.89,1-.22,1.71-2.26,3-2.68,1.81-.6,1.62-.11,2.19-.33,2.79-1,2.87.31,5.39-.33a1.84,1.84,0,0,1,2,.51l4.7-1.89,2-2L176,23.57l2.49.62Z"/><path class="cls-1" d="M115.09,96.81a11,11,0,0,0,6.25,4.48,22.12,22.12,0,0,0,13.57-.24c-3-2.31-8.88-8-13.52-9.55C115.41,89.5,113.33,93.77,115.09,96.81Zm7,1.85a9.21,9.21,0,0,1-4.64-2.78c-.85-1.17,0-2.71,2.91-1.8,2.53.79,6.5,4,8.29,5.37A19,19,0,0,1,122.14,98.66Z"/><rect class="cls-2" width="218" height="208"/></svg>